<svg width="33" height="21" viewBox="0 0 33 21" fill="none" xmlns="http://www.w3.org/2000/svg">
<g clip-path="url(#clip0)">
<path d="M32.7866 1.0529C31.3312 -1.47432 22.8605 0.704511 13.866 5.92374C4.87197 11.1409 -1.24173 17.4196 0.214129 19.9483C1.46584 22.1216 7.89868 20.8114 15.3933 17.0915C15.7276 16.9069 15.7043 16.5097 15.2681 16.6526C10.6483 18.362 6.79589 18.4673 5.79746 16.6526C4.4733 14.2459 8.67068 9.37152 15.1729 5.76557C21.6751 2.1591 28.0203 1.18666 29.345 3.59335C29.9509 4.69548 29.3972 6.31384 27.996 8.09291L27.9773 8.11936C27.4596 8.76528 27.8365 8.95956 28.2073 8.64576C31.7927 5.45583 33.6609 2.57462 32.7866 1.0529Z" fill="#EF373E"/>
<path d="M19.298 17.6957C18.4971 17.4795 17.8426 17.1855 17.3396 16.8148L18.2489 14.7544C18.7833 15.0957 19.3532 15.3551 19.9535 15.5367C20.5553 15.7172 21.1591 15.8083 21.7659 15.8083C22.3829 15.8083 22.8556 15.7213 23.1853 15.5519C23.5131 15.381 23.6777 15.141 23.6777 14.8328C23.6777 14.5525 23.5298 14.3242 23.2314 14.1411C22.9331 13.9631 22.3708 13.783 21.5491 13.6096C20.5117 13.4016 19.7052 13.1463 19.1283 12.8421C18.5523 12.5385 18.1501 12.1789 17.9171 11.7669C17.6856 11.3514 17.5706 10.853 17.5706 10.2645C17.5706 9.5932 17.7611 8.98644 18.143 8.4453C18.5239 7.90211 19.0563 7.48049 19.7458 7.17431C20.4342 6.86966 21.2194 6.71912 22.1048 6.71912C22.8976 6.71912 23.6655 6.82948 24.4107 7.05072C25.1553 7.27298 25.7384 7.56441 26.1599 7.92602L25.2663 9.98635C24.784 9.64508 24.2744 9.38569 23.74 9.2026C23.2046 9.02306 22.6712 8.93253 22.1357 8.93253C21.6119 8.93253 21.19 9.03374 20.8708 9.23362C20.5517 9.43554 20.3942 9.70764 20.3942 10.0474C20.3942 10.2335 20.4499 10.3871 20.5629 10.5122C20.6763 10.6353 20.8881 10.7579 21.1935 10.8749C21.504 10.9944 21.966 11.12 22.583 11.2553C23.5799 11.472 24.3646 11.7329 24.9355 12.035C25.5049 12.3406 25.9091 12.6982 26.1452 13.1051C26.3827 13.513 26.5008 14.0002 26.5008 14.5678C26.5008 15.642 26.0834 16.4877 25.2511 17.0996C24.4183 17.7145 23.2461 18.0202 21.7345 18.0202C20.9129 18.0202 20.0978 17.9118 19.298 17.6957Z" fill="white"/>
</g>
<defs>
<clipPath id="clip0">
<rect width="33" height="21" fill="white"/>
</clipPath>
</defs>
</svg>
